<?xml version="1.0" encoding="UTF-8" standalone="no"?>
<svg
   xmlns:dc="http://purl.org/dc/elements/1.1/"
   xmlns:cc="http://creativecommons.org/ns#"
   xmlns:rdf="http://www.w3.org/1999/02/22-rdf-syntax-ns#"
   xmlns:svg="http://www.w3.org/2000/svg"
   xmlns="http://www.w3.org/2000/svg"
   xmlns:sodipodi="http://sodipodi.sourceforge.net/DTD/sodipodi-0.dtd"
   xmlns:inkscape="http://www.inkscape.org/namespaces/inkscape"
   id="Layer_1"
   data-name="Layer 1"
   viewBox="0 0 2056.1894 306.41208"
   version="1.1"
   sodipodi:docname="group_banner.svg"
   width="2056.1895"
   height="306.41208"
   inkscape:version="1.0.2 (e86c870879, 2021-01-15)">
  <metadata
     id="metadata41">
    <rdf:RDF>
      <cc:Work
         rdf:about="">
        <dc:format>image/svg+xml</dc:format>
        <dc:type
           rdf:resource="http://purl.org/dc/dcmitype/StillImage" />
      </cc:Work>
    </rdf:RDF>
  </metadata>
  <sodipodi:namedview
     pagecolor="#ffffff"
     bordercolor="#666666"
     borderopacity="1"
     objecttolerance="10"
     gridtolerance="10"
     guidetolerance="10"
     inkscape:pageopacity="0"
     inkscape:pageshadow="2"
     inkscape:window-width="1366"
     inkscape:window-height="694"
     id="namedview39"
     showgrid="false"
     inkscape:zoom="0.29348687"
     inkscape:cx="1078.0299"
     inkscape:cy="-90.191534"
     inkscape:window-x="0"
     inkscape:window-y="0"
     inkscape:window-maximized="1"
     inkscape:current-layer="Layer_1"
     inkscape:document-rotation="0" />
  <defs
     id="defs4">
    <rect
       x="622.41156"
       y="-1.5673124"
       width="1571.7087"
       height="284.91821"
       id="rect31" />
    <rect
       x="620.34735"
       y="-0.86780596"
       width="888.26941"
       height="301.08817"
       id="rect25" />
    <style
       id="style2">.cls-1,.cls-4{fill:none;stroke-miterlimit:10;}.cls-1{stroke:#ff1a00;stroke-width:20px;}.cls-2{fill:#ff1a00;}.cls-3,.cls-5{fill:#2c4816;}.cls-4{stroke:#2c4816;stroke-width:7px;}.cls-5{font-size:191.94px;font-family:Gotham-Book, Gotham;}.cls-6{fill:#ffdd67;}.cls-6,.cls-7{fill-rule:evenodd;}.cls-7{fill:#494949;}.cls-8{fill:#664e27;}</style>
  </defs>
  <title
     id="title6">BdOI logo White BG ( No Underline)</title>
  <circle
     class="cls-1"
     cx="361.62512"
     cy="209.60796"
     id="circle8"
     r="77" />
  <circle
     class="cls-2"
     cx="361.12512"
     cy="27.607986"
     id="circle10"
     r="21" />
  <circle
     class="cls-2"
     cx="271.12512"
     cy="117.60799"
     id="circle12"
     r="21" />
  <circle
     class="cls-2"
     cx="147.12508"
     cy="117.60799"
     id="circle14"
     r="21" />
  <circle
     class="cls-2"
     cx="487.12512"
     cy="153.60797"
     id="circle16"
     r="21" />
  <circle
     class="cls-2"
     cx="600.12506"
     cy="40.607986"
     id="circle18"
     r="21" />
  <rect
     class="cls-3"
     x="479.63513"
     y="186.60796"
     width="14.98"
     height="100"
     id="rect20" />
  <line
     class="cls-4"
     x1="380.12512"
     y1="46.607986"
     x2="468.12512"
     y2="134.60797"
     id="line22" />
  <line
     class="cls-4"
     x1="340.12512"
     y1="46.607986"
     x2="287.62512"
     y2="99.107964"
     id="line24" />
  <line
     class="cls-4"
     x1="245.99507"
     y1="117.85799"
     x2="171.75508"
     y2="117.85799"
     id="line26" />
  <line
     class="cls-4"
     x1="582.62506"
     y1="58.107986"
     x2="508.12512"
     y2="132.60797"
     id="line28" />
  <text
     class="cls-5"
     transform="scale(0.99498745,1.0050378)"
     id="text30"
     x="-13.643276"
     y="285.31061"
     style="stroke-width:0.994987">BD</text>
  <path
     class="cls-6"
     d="m 359.32511,139.89799 c 37.82,0 68.48,30.91 68.48,69 0,38.09 -30.66,69 -68.48,69 -37.82,0 -68.48,-30.91 -68.48,-69 0,-38.09 30.66,-69 68.48,-69"
     id="path32" />
  <path
     class="cls-7"
     d="m 368.11511,182.42799 a 21.36,21.36 0 0 1 -17.57,0 c -5.36,-2.77 -11.92,-4.55 -19.76,-5.25 -7.66,-0.67 -23.89,-0.65 -32,2.23 a 21.39,21.39 0 0 0 -2.73,1.21 c -0.5,0.26 -0.6,0.45 -0.6,1.39 v 1.21 c 0,2.29 -0.28,1.4 1.34,2.35 3.15,1.86 4.94,6.7 5.9,13.35 1.36,9.69 6.08,15.77 13.74,18.67 a 30.53,30.53 0 0 0 22.12,-0.24 21.07,21.07 0 0 0 9.94,-8 c 4.72,-7 3.31,-11.36 5.74,-17.37 2.13,-5.24 8.09,-5.24 10.21,0 2.44,6 1,10.38 5.75,17.37 a 21.07,21.07 0 0 0 9.94,8 30.53,30.53 0 0 0 22.12,0.24 c 7.66,-2.9 12.38,-9 13.74,-18.67 1,-6.65 2.75,-11.49 5.9,-13.35 1.62,-0.94 1.34,-0.06 1.34,-2.35 v -1.21 c 0,-0.94 -0.1,-1.13 -0.6,-1.39 a 21.39,21.39 0 0 0 -2.73,-1.21 c -8.13,-2.88 -24.36,-2.9 -32,-2.23 a 53,53 0 0 0 -19.75,5.25"
     id="path34" />
  <path
     class="cls-8"
     d="m 388.04511,232.59799 c -18.5,13 -39,12.94 -57.44,0 -2.22,-1.56 -4.21,1.14 -2.71,3.63 a 36.85,36.85 0 0 0 62.86,0 c 1.51,-2.49 -0.49,-5.18 -2.71,-3.63 z"
     id="path36" />
  <text
     xml:space="preserve"
     id="text23"
     style="font-style:italic;font-weight:500;font-size:40px;line-height:1.25;font-family:'Gargi-1.2b';-inkscape-font-specification:'Gargi-1.2b, Medium Italic';white-space:pre;shape-inside:url(#rect25);"
     transform="translate(4.9818098,6.6079852)" />
  <text
     xml:space="preserve"
     id="text29"
     style="font-style:normal;font-variant:normal;font-weight:bold;font-stretch:normal;font-size:85.3333px;line-height:1.25;font-family:Arial;-inkscape-font-specification:'Arial, Bold';font-variant-ligatures:normal;font-variant-caps:normal;font-variant-numeric:normal;font-variant-east-asian:normal;white-space:pre;shape-inside:url(#rect31);"
     transform="translate(-47.115414,103.64061)"><tspan
       x="622.41211"
       y="75.297939"><tspan
         style="font-style:normal;font-variant:normal;font-weight:bold;font-stretch:normal;font-size:85.3333px;font-family:Arial;-inkscape-font-specification:'Arial, Bold';font-variant-ligatures:normal;font-variant-caps:normal;font-variant-numeric:normal;font-variant-east-asian:normal;shape-inside:url(#rect31)">Bangladesh Olympiad in Informatics
</tspan></tspan><tspan
       x="622.41211"
       y="181.96457"><tspan
         style="font-style:normal;font-variant:normal;font-weight:bold;font-stretch:normal;font-size:85.3333px;font-family:Arial;-inkscape-font-specification:'Arial, Bold';font-variant-ligatures:normal;font-variant-caps:normal;font-variant-numeric:normal;font-variant-east-asian:normal;shape-inside:url(#rect31)">Practice Contest
</tspan></tspan></text>
</svg>
