<svg id="Layer_1" data-name="Layer 1" xmlns="http://www.w3.org/2000/svg" viewBox="0 0 1366 768"><defs><style>.cls-1,.cls-4{fill:none;stroke-miterlimit:10;}.cls-1{stroke:#ff1a00;stroke-width:20px;}.cls-2{fill:#ff1a00;}.cls-3,.cls-5{fill:#2c4816;}.cls-4{stroke:#2c4816;stroke-width:7px;}.cls-5{font-size:191.94px;font-family:Gotham-Book, Gotham;}.cls-6{fill:#ffdd67;}.cls-6,.cls-7{fill-rule:evenodd;}.cls-7{fill:#494949;}.cls-8{fill:#664e27;}</style></defs><title>BdOI logo White BG ( No Underline)</title><circle class="cls-1" cx="740.85" cy="310.71" r="77"/><circle class="cls-2" cx="740.35" cy="128.71" r="21"/><circle class="cls-2" cx="650.35" cy="218.71" r="21"/><circle class="cls-2" cx="526.35" cy="218.71" r="21"/><circle class="cls-2" cx="866.35" cy="254.71" r="21"/><circle class="cls-2" cx="979.35" cy="141.71" r="21"/><rect class="cls-3" x="858.86" y="287.71" width="14.98" height="100"/><line class="cls-4" x1="759.35" y1="147.71" x2="847.35" y2="235.71"/><line class="cls-4" x1="719.35" y1="147.71" x2="666.85" y2="200.21"/><line class="cls-4" x1="625.22" y1="218.96" x2="550.98" y2="218.96"/><line class="cls-4" x1="961.85" y1="159.21" x2="887.35" y2="233.71"/><text class="cls-5" transform="translate(365.65 387.85) scale(0.99 1)">BD</text><path class="cls-6" d="M738.55,241c37.82,0,68.48,30.91,68.48,69s-30.66,69-68.48,69-68.48-30.91-68.48-69,30.66-69,68.48-69"/><path class="cls-7" d="M747.34,283.53a21.36,21.36,0,0,1-17.57,0c-5.36-2.77-11.92-4.55-19.76-5.25-7.66-.67-23.89-.65-32,2.23a21.39,21.39,0,0,0-2.73,1.21c-.5.26-.6.45-.6,1.39v1.21c0,2.29-.28,1.4,1.34,2.35,3.15,1.86,4.94,6.7,5.9,13.35,1.36,9.69,6.08,15.77,13.74,18.67a30.53,30.53,0,0,0,22.12-.24,21.07,21.07,0,0,0,9.94-8c4.72-7,3.31-11.36,5.74-17.37,2.13-5.24,8.09-5.24,10.21,0,2.44,6,1,10.38,5.75,17.37a21.07,21.07,0,0,0,9.94,8,30.53,30.53,0,0,0,22.12.24c7.66-2.9,12.38-9,13.74-18.67,1-6.65,2.75-11.49,5.9-13.35,1.62-.94,1.34-.06,1.34-2.35v-1.21c0-.94-.1-1.13-.6-1.39a21.39,21.39,0,0,0-2.73-1.21c-8.13-2.88-24.36-2.9-32-2.23a53,53,0,0,0-19.75,5.25"/><path class="cls-8" d="M767.27,333.7c-18.5,13-39,12.94-57.44,0-2.22-1.56-4.21,1.14-2.71,3.63a36.85,36.85,0,0,0,62.86,0C771.49,334.84,769.49,332.15,767.27,333.7Z"/></svg>